<?xml version="1.0" encoding="UTF-8" standalone="no"?>
<svg
   xmlns:dc="http://purl.org/dc/elements/1.1/"
   xmlns:cc="http://creativecommons.org/ns#"
   xmlns:rdf="http://www.w3.org/1999/02/22-rdf-syntax-ns#"
   xmlns:svg="http://www.w3.org/2000/svg"
   xmlns="http://www.w3.org/2000/svg"
   xmlns:sodipodi="http://sodipodi.sourceforge.net/DTD/sodipodi-0.dtd"
   xmlns:inkscape="http://www.inkscape.org/namespaces/inkscape"
   width="24"
   height="24"
   viewBox="0 0 24 24"
   preserveAspectRatio="xMinYMid meet"
   overflow="visible"
   version="1.1"
   id="svg3819"
   sodipodi:docname="icon.svg"
   inkscape:version="0.92.2 (5c3e80d, 2017-08-06)">
  <metadata
     id="metadata3825">
    <rdf:RDF>
      <cc:Work
         rdf:about="">
        <dc:format>image/svg+xml</dc:format>
        <dc:type
           rdf:resource="http://purl.org/dc/dcmitype/StillImage" />
      </cc:Work>
    </rdf:RDF>
  </metadata>
  <defs
     id="defs3823" />
  <sodipodi:namedview
     pagecolor="#ffffff"
     bordercolor="#666666"
     borderopacity="1"
     objecttolerance="10"
     gridtolerance="10"
     guidetolerance="10"
     inkscape:pageopacity="0"
     inkscape:pageshadow="2"
     inkscape:window-width="1366"
     inkscape:window-height="705"
     id="namedview3821"
     showgrid="false"
     inkscape:zoom="15.792051"
     inkscape:cx="2.8929673"
     inkscape:cy="11.342218"
     inkscape:window-x="-8"
     inkscape:window-y="-8"
     inkscape:window-maximized="1"
     inkscape:current-layer="svg3819" />
  <linearGradient
     id="a"
     gradientUnits="userSpaceOnUse"
     x1="10.499"
     x2="10.499"
     y2="19.431">
    <stop
       offset="0"
       stop-color="#76A1F0"
       id="stop3763" />
    <stop
       offset="1"
       stop-color="#6B90D5"
       id="stop3765" />
  </linearGradient>
  <path
     d="M19 0H2C.9 0 0 .9 0 2v11.3C0 14.4.9 15 2 15v4.4L6.1 15H19c1.1 0 2-.5 2-1.6V2c0-1.1-1-2-2-2z"
     fill="url(#a)"
     id="path3768"
     style="fill:#000080" />
  <linearGradient
     id="b"
     gradientUnits="userSpaceOnUse"
     x1="10.499"
     y1=".953"
     x2="10.499"
     y2="16.838">
    <stop
       offset="0"
       stop-color="#BBE0F7"
       id="stop3770" />
    <stop
       offset="1"
       stop-color="#82B4FB"
       id="stop3772" />
  </linearGradient>
  <path
     d="M3 14H2c-.4 0-1-.1-1-.6V2c0-.6.5-1 1-1h17c.5 0 1 .5 1 1v11.3c0 .6-.8.6-1 .6H5.7L3 16.8V14z"
     fill="url(#b)"
     id="path3775" />
  <linearGradient
     id="c"
     gradientUnits="userSpaceOnUse"
     x1="10.498"
     y1="1.978"
     x2="10.498"
     y2="14.314">
    <stop
       offset="0"
       stop-color="#95BFF8"
       id="stop3777" />
    <stop
       offset=".557"
       stop-color="#84ADEF"
       id="stop3779" />
    <stop
       offset="1"
       stop-color="#7CA4EB"
       id="stop3781" />
  </linearGradient>
  <path
     d="M4 13H2V2h17v11H5.2L4 14.3V13z"
     fill="url(#c)"
     id="path3784" />
  <path
     d="M17 11H4v-1h13v1zm0-3H4v1h13V8zm0-2H4v1h13V6zm0-2H4v1h13V4z"
     id="path3786"
     fill="#FFF" />
  <linearGradient
     id="d"
     gradientUnits="userSpaceOnUse"
     x1="15"
     y1="7.896"
     x2="15"
     y2="23.897">
    <stop
       offset="0"
       stop-color="#90C50E"
       id="stop3788" />
    <stop
       offset="1"
       stop-color="#70A034"
       id="stop3790" />
  </linearGradient>
  <path
     d="M 22,3.214098 H 8 c -1.1,0 -2,0.7 -2,1.8 v 9 c 0,1.1 0.9,2 2,2 v 3.2 l 3.1,-3 H 22 c 1.1,0 2,-1.1 2,-2.2 v -9 c 0,-1.1 -0.9,-1.8 -2,-1.8 z"
     id="path3793"
     style="fill:#008000"
     inkscape:connector-curvature="0" />
  <linearGradient
     id="e"
     gradientUnits="userSpaceOnUse"
     x1="15"
     y1="8.896"
     x2="15"
     y2="21.391"
     gradientTransform="translate(0,-4.685902)">
    <stop
       offset="0"
       stop-color="#D9F991"
       id="stop3795" />
    <stop
       offset=".239"
       stop-color="#D7F88D"
       id="stop3797" />
    <stop
       offset=".45"
       stop-color="#D1F383"
       id="stop3799" />
    <stop
       offset=".651"
       stop-color="#C6EC71"
       id="stop3801" />
    <stop
       offset=".844"
       stop-color="#B7E257"
       id="stop3803" />
    <stop
       offset="1"
       stop-color="#A8D73D"
       id="stop3805" />
  </linearGradient>
  <path
     d="M 9,15.214098 H 8 c -0.6,0 -1,-0.7 -1,-1.2 v -9 c 0,-0.6 0.4,-0.8 1,-0.8 h 14 c 0.6,0 1,0.2 1,0.8 v 9 c 0,0.6 -0.4,1.2 -1,1.2 H 10.6 l -1.6,1.5 z"
     id="path3808"
     style="fill:url(#e)"
     inkscape:connector-curvature="0" />
  <linearGradient
     id="f"
     gradientUnits="userSpaceOnUse"
     x1="15"
     y1="9.896"
     x2="15"
     y2="18.896"
     gradientTransform="translate(0,-4.685902)">
    <stop
       offset="0"
       stop-color="#B3E810"
       id="stop3810" />
    <stop
       offset="1"
       stop-color="#90C60D"
       id="stop3812" />
  </linearGradient>
  <path
     d="M 10,14.214098 H 8 v -9 h 14 v 9 H 10"
     id="path3815"
     style="fill:url(#f)"
     inkscape:connector-curvature="0" />
  <path
     d="M 20,12.214098 H 10 v -1 h 10 z m 0,-3 H 10 v 1 h 10 z m 0,-2 H 10 v 1 h 10 z"
     id="path3817"
     inkscape:connector-curvature="0"
     style="fill:#ffffff" />
  <rect
     style="fill:#000080;stroke-width:1.29287732"
     id="rect3827"
     width="5.7890034"
     height="5.673223"
     x="0.091499947"
     y="17.611187" />
  <rect
     style="fill:#008000;stroke-width:1.29287732"
     id="rect3827-0"
     width="5.7890034"
     height="5.673223"
     x="6.1282644"
     y="17.611187" />
  <rect
     style="fill:#ff6600;stroke-width:1.29287732"
     id="rect3827-0-0"
     width="5.7890034"
     height="5.673223"
     x="12.165029"
     y="17.611187" />
  <rect
     style="fill:#ff00cc;stroke-width:1.29287732"
     id="rect3827-0-0-3"
     width="5.7890034"
     height="5.673223"
     x="18.263735"
     y="17.611187" />
</svg>
